<svg width="93" height="22" viewBox="0 0 93 22" fill="none" xmlns="http://www.w3.org/2000/svg">
<path d="M0.0559082 16.1768L3.38073 13.6998C5.14717 15.9419 7.02393 16.9753 9.11294 16.9753C11.1908 16.9753 13.0145 15.9541 14.7013 13.7296L18.0736 16.1469C15.6397 19.3546 12.6151 21.0494 9.11294 21.0494C5.62195 21.0494 2.56803 19.3654 0.0559082 16.1768V16.1768Z" fill="url(#paint0_linear_29_23)"/>
<path d="M9.10171 5.41037L3.18378 10.3699L0.448242 7.28444L9.11428 0.0217285L17.7119 7.28988L14.9638 10.3644L9.10171 5.41037Z" fill="url(#paint1_linear_29_23)"/>
<path d="M30.8241 17.9898C28.8036 17.9898 27.1195 17.3529 25.7538 16.079C24.3881 14.7876 23.7151 13.1321 23.7151 11.1114C23.7151 9.07434 24.4063 7.3999 25.772 6.0894C27.1572 4.76125 28.8413 4.10668 30.8437 4.10668C33.3139 4.10668 35.5021 5.14286 36.7756 6.76298L34.5469 9.03767C33.4801 7.92681 32.3197 7.36323 31.0671 7.36323C30.0003 7.36323 29.1205 7.70817 28.3902 8.41842C27.6795 9.12866 27.3248 10.0209 27.3248 11.0937C27.3248 12.1313 27.6795 13.0045 28.3902 13.7147C29.1205 14.4059 30.0003 14.7509 31.0476 14.7509C32.4132 14.7509 33.6113 14.1683 34.6028 13.0221L36.9236 15.1882C36.2868 16.0071 35.4267 16.6806 34.3598 17.2076C33.293 17.7358 32.1144 17.9898 30.8227 17.9898H30.8241ZM40.8503 3.9057V17.7901H37.5576V3.9057H40.8503V3.9057ZM43.9712 6.85261C42.8681 6.85261 42.0637 6.07039 42.0637 4.99755C42.0637 3.96002 42.9058 3.1778 43.9712 3.1778C45.0381 3.1778 45.8619 3.96002 45.8619 4.99755C45.8619 6.07039 45.0381 6.85397 43.9712 6.85397V6.85261ZM45.6371 7.74483V17.7901H42.3249V7.74483H45.6371V7.74483ZM51.9768 18.0088C50.3486 18.0088 49.0387 17.5172 48.011 16.534C47 15.5521 46.4945 14.2959 46.4945 12.7492C46.4945 11.2024 47 9.94755 48.0291 8.96434C49.0583 7.98113 50.3863 7.49088 52.0326 7.49088C54.1845 7.49088 56.0752 8.5094 56.9535 10.4201L54.3157 11.7673C53.7921 10.9117 53.0618 10.4745 52.108 10.4745C51.4154 10.4745 50.854 10.6931 50.4044 11.1304C50.1911 11.345 50.0234 11.5985 49.911 11.8763C49.7986 12.1541 49.7437 12.4507 49.7495 12.7492C49.7495 14.0773 50.7409 15.0605 52.0703 15.0605C53.0241 15.0605 53.9038 14.5513 54.278 13.769L56.9172 15.2968C56.0179 16.9713 54.1663 18.0088 51.9768 18.0088V18.0088ZM68.4026 17.7901H64.4717L61.4206 13.8043L60.9346 14.2416V17.7901H57.6433V3.9057H60.936V10.6564L64.0416 7.74483H68.0646L63.6311 11.785L68.4026 17.7901ZM68.6232 12.5672V4.34162H72.1407V12.5129C72.1407 14.023 73.0386 14.7509 74.3303 14.7509C75.6024 14.7509 76.5003 13.9863 76.5003 12.5129V4.34162H80.0373V12.5672C80.0373 16.534 77.211 18.0264 74.3303 18.0264C71.4676 18.0264 68.6232 16.534 68.6232 12.5672V12.5672ZM87.8544 7.49088C89.3331 7.49088 90.5313 8.00014 91.485 9.01866C92.4387 10.0195 92.9065 11.2757 92.9065 12.7492C92.9065 14.224 92.4206 15.4788 91.4668 16.5163C90.5117 17.5348 89.315 18.0455 87.8739 18.0455C86.7317 18.0455 85.7402 17.6815 84.9359 16.9536V21.9213H81.6236V7.74483H84.88V8.67372C85.6844 7.89014 86.6758 7.49088 87.8544 7.49088V7.49088ZM89.5384 12.7858C89.5384 11.4753 88.5665 10.4745 87.219 10.4745C85.8715 10.4745 84.88 11.4753 84.88 12.7858C84.88 13.4227 85.1035 13.9687 85.5349 14.4236C85.9832 14.8785 86.5445 15.0972 87.219 15.0972C87.8921 15.0972 88.4534 14.8785 88.8835 14.4236C89.3126 13.9812 89.5479 13.3939 89.5398 12.7858H89.5384Z" fill="#111111"/>
<defs>
<linearGradient id="paint0_linear_29_23" x1="0.0559082" y1="18.6983" x2="18.0736" y2="18.6983" gradientUnits="userSpaceOnUse">
<stop stop-color="#8930FD"/>
<stop offset="1" stop-color="#49CCF9"/>
</linearGradient>
<linearGradient id="paint1_linear_29_23" x1="0.448242" y1="7.0595" x2="17.7119" y2="7.0595" gradientUnits="userSpaceOnUse">
<stop stop-color="#FF02F0"/>
<stop offset="1" stop-color="#FFC800"/>
</linearGradient>
</defs>
</svg>
