<svg width="47" height="47" viewBox="0 0 47 47" fill="none" xmlns="http://www.w3.org/2000/svg">
<rect x="23.4819" y="1" width="31.7956" height="31.7956" rx="4" transform="rotate(44.9977 23.4819 1)" fill="#FFF4F4"/>
<path d="M17.1583 7.25978L29.7598 18.584L23.5026 24.4197C21.9777 25.8418 19.6169 25.8546 18.08 24.4454C14.6406 21.2918 9.14074 16.2305 8.93407 15.9237C8.63257 15.4763 17.1583 7.25978 17.1583 7.25978Z" fill="#F9ACC5"/>
<path d="M29.4825 40.0165L20.5 30.7981C20.5 30.7981 25.407 26.3949 27.7142 24.2402C30.0214 22.0856 37.6891 31.7011 37.6891 31.7011L29.4825 40.0165Z" fill="#F9ACC5"/>
<path d="M7.64539 16.9468L29.9998 39.4998L26.2641 43.3108C24.7042 44.9023 22.1444 44.912 20.5724 43.3325L3.76872 26.4485C2.21035 24.8827 2.21639 22.35 3.7822 20.7917L7.64539 16.9468Z" fill="#FE457E"/>
<path d="M39.6545 30.0433L17 7.5L20.8244 3.7511C22.3824 2.22391 24.8767 2.22679 26.4312 3.75757L43.4355 20.5032C45.0096 22.0533 45.029 24.5859 43.4789 26.1599L39.6545 30.0433Z" fill="#FE457E"/>
</svg>
